<svg width="1130" height="316" viewBox="0 0 1130 316" fill="none" xmlns="http://www.w3.org/2000/svg">
<path d="M684.113 290.991C686.944 294.509 691.92 296.653 697.496 296.653C709.25 296.653 717.829 286.702 717.829 272.632C717.829 258.562 709.25 248.611 697.411 248.611C692.263 248.611 687.63 250.67 684.628 254.015H684.456V232.739H676.049V295.367H683.942V290.991H684.113ZM709.421 272.632C709.421 282.584 704.36 288.846 696.467 288.846C689.775 288.846 684.456 283.356 684.456 276.578V268.6C684.456 261.908 689.861 256.418 696.724 256.418C704.531 256.418 709.421 262.68 709.421 272.632Z" fill="#0E013A"/>
<path d="M727.454 314.67H736.118L763.142 249.897H754.306L741.266 282.241H741.094L728.226 249.897H719.389L736.891 291.935L727.454 314.67Z" fill="#0E013A"/>
<path d="M1061.26 295.508L1095.16 230.011L1129.07 295.508H1106.56L1095.16 272.591L1083.79 295.508H1061.26Z" fill="#FC5200"/>
<path d="M811.522 254.923C804.892 253.663 803.178 252.579 803.178 250.89V250.713C803.178 249.175 804.615 248.192 807.741 248.192C814.522 248.243 821.128 250.36 826.649 254.293L836.884 240.125C829.624 234.377 820.623 231.503 808.522 231.503C791.177 231.503 781.85 240.755 781.85 252.68V252.881C781.85 266.167 794.228 270.201 808.321 273.05C815.077 274.386 817.043 275.394 817.043 277.184V277.361C817.043 279.075 815.43 280.058 811.648 280.058C803.707 280.109 795.967 277.512 789.665 272.697L778.497 286.109C786.488 293.117 797.984 296.697 810.716 296.697C827.607 296.697 838.447 288.605 838.447 275.42V275.243C838.472 262.562 827.682 257.923 811.522 254.923Z" fill="#FC5200"/>
<path d="M840.881 250.431H859.385V295.508H880.386V250.431H898.89V232.658H840.881V250.431Z" fill="#FC5200"/>
<path fill-rule="evenodd" clip-rule="evenodd" d="M963.365 292.18L950.987 274.129C958.676 270.877 963.592 263.263 963.39 254.919V254.717C963.668 249.171 961.626 243.776 957.743 239.818C953.231 235.431 946.146 232.708 935.054 232.708H904.322V295.482H925.323V277.533H929.81L941.659 295.482H984.164L995.559 272.591L1006.95 295.482H1029.49L995.559 230.011L963.365 292.18ZM942.466 256.457C942.466 260.314 939.415 262.558 934.373 262.558H925.323V250.356H934.474C939.314 250.356 942.466 252.322 942.466 256.356V256.457Z" fill="#FC5200"/>
<path d="M1045.38 255.5L1056.77 232.583H1079.28L1045.38 298.08L1011.47 232.583H1033.98L1045.38 255.5Z" fill="#FC5200"/>
<path d="M94.6419 67.5732L81.1605 94.5353H27.2352V161.94H0.272461V0.167969H135.086L121.605 27.1301H27.2352V67.5732H94.6419Z" fill="#0E013A"/>
<path d="M215.974 0.169933H371.01V27.1321H310.344V161.942H283.381V27.1321H229.456L215.974 0.169933Z" fill="#0E013A"/>
<path d="M526.045 0.169933H553.007V161.942H526.045V47.3536L472.119 121.499L418.194 47.3536V161.942H391.231V0.169933H418.194L472.119 74.3157L526.045 0.169933Z" fill="#0E013A"/>
<path fill-rule="evenodd" clip-rule="evenodd" d="M593.451 161.942H566.489L647.377 0.169933L728.265 161.942H701.302L687.821 134.98H606.933L593.451 161.942ZM647.377 54.0941L620.414 108.018H674.339L647.377 54.0941Z" fill="#0E013A"/>
<path fill-rule="evenodd" clip-rule="evenodd" d="M809.153 0.169933C838.934 0.169933 863.079 24.3145 863.079 54.0941C863.079 83.8738 838.934 108.018 809.153 108.018H768.709V161.942H741.747V0.169933H809.153ZM768.709 81.056H809.153C824.023 81.056 836.116 68.9635 836.116 54.0939C836.116 39.2244 824.023 27.1319 809.153 27.1319H768.709V81.056Z" fill="#0E013A"/>
<path fill-rule="evenodd" clip-rule="evenodd" d="M94.6419 161.942H121.605L135.086 134.98H215.974L229.455 161.942H256.418L175.53 0.169933L94.6419 161.942ZM148.567 108.018L175.53 54.0941L202.493 108.018H148.567Z" fill="#0E013A"/>
<path d="M937.656 74.5559L976.254 0L1005.7 56.8757C1002.67 58.6547 999.095 60.8517 996.447 62.9616C988.125 69.5925 978.329 79.2496 977.345 94.394C976.347 109.777 983.601 118.192 990.266 125.844L990.275 125.855C997.046 133.63 1002.62 142.881 998.117 153.118C997.085 155.461 994.389 159.382 992.547 161.948H859.364L921.132 42.6372L937.656 74.5559Z" fill="#0E013A"/>
<path d="M1002.8 70.5147C1005.29 68.5329 1007.89 66.7787 1010.13 65.4317L1060.1 161.948H1017.79C1018.68 158.695 1019.2 155.095 1019.07 151.451C1018.59 138.593 1009.97 129.41 1003.36 122.374C1002.11 121.038 1000.93 119.779 999.887 118.588L999.34 117.961C992.634 110.261 987.937 104.431 988.589 94.394C989.256 84.1113 995.691 76.1823 1002.8 70.5147Z" fill="#0E013A"/>
</svg>
