<svg width="1130" height="317" viewBox="0 0 1130 317" fill="none" xmlns="http://www.w3.org/2000/svg">
<path d="M684.181 291.773C687.012 295.291 691.988 297.436 697.564 297.436C709.317 297.436 717.896 287.484 717.896 273.414C717.896 259.345 709.317 249.393 697.478 249.393C692.331 249.393 687.698 251.452 684.696 254.798H684.524V233.521H676.117V296.149H684.009V291.773H684.181ZM709.489 273.414C709.489 283.366 704.427 289.629 696.535 289.629C689.843 289.629 684.524 284.138 684.524 277.361V269.382C684.524 262.69 689.929 257.2 696.792 257.2C704.599 257.2 709.489 263.462 709.489 273.414Z" fill="black"/>
<path d="M727.522 315.452H736.186L763.21 250.68H754.374L741.334 283.023H741.162L728.294 250.68H719.457L736.958 292.717L727.522 315.452Z" fill="black"/>
<path d="M1061.32 296.291L1095.23 230.794L1129.14 296.291H1106.63L1095.23 273.375L1083.86 296.291H1061.32Z" fill="black"/>
<path d="M811.59 255.707C804.96 254.446 803.246 253.362 803.246 251.673V251.496C803.246 249.959 804.683 248.975 807.809 248.975C814.59 249.026 821.195 251.143 826.717 255.076L836.952 240.908C829.691 235.16 820.691 232.286 808.59 232.286C791.245 232.286 781.917 241.538 781.917 253.463V253.664C781.917 266.95 794.296 270.984 808.389 273.833C815.145 275.169 817.111 276.177 817.111 277.967V278.144C817.111 279.858 815.498 280.841 811.716 280.841C803.775 280.892 796.035 278.295 789.733 273.48L778.564 286.892C786.556 293.901 798.052 297.48 810.784 297.48C827.675 297.48 838.515 289.388 838.515 276.203V276.026C838.54 263.345 827.75 258.707 811.59 255.707Z" fill="black"/>
<path d="M840.949 251.215H859.453V296.291H880.454V251.215H898.958V233.441H840.949V251.215Z" fill="black"/>
<path fill-rule="evenodd" clip-rule="evenodd" d="M963.433 292.963L951.055 274.912C958.744 271.66 963.66 264.047 963.458 255.702V255.5C963.736 249.954 961.694 244.559 957.811 240.601C953.298 236.214 946.214 233.491 935.122 233.491H904.39V296.266H925.39V278.316H929.878L941.727 296.266H984.232L995.627 273.375L1007.02 296.266H1029.56L995.627 230.794L963.433 292.963ZM942.534 257.24C942.534 261.097 939.483 263.341 934.441 263.341H925.39V251.139H934.542C939.382 251.139 942.534 253.105 942.534 257.139V257.24Z" fill="black"/>
<path d="M1045.44 256.283L1056.84 233.366H1079.35L1045.44 298.863L1011.54 233.366H1034.05L1045.44 256.283Z" fill="black"/>
<path d="M94.7098 68.3564L81.2284 95.3185H27.303V162.724H0.340332V0.951172H135.154L121.672 27.9133H27.303V68.3564H94.7098Z" fill="black"/>
<path d="M216.042 0.953136H371.078V27.9153H310.411V162.726H283.449V27.9153H229.523L216.042 0.953136Z" fill="black"/>
<path d="M526.112 0.953136H553.075V162.726H526.112V48.1368L472.187 122.283L418.262 48.1368V162.726H391.299V0.953136H418.262L472.187 75.0989L526.112 0.953136Z" fill="black"/>
<path fill-rule="evenodd" clip-rule="evenodd" d="M593.519 162.726H566.557L647.445 0.953136L728.333 162.726H701.37L687.889 135.763H607.001L593.519 162.726ZM647.445 54.8773L620.482 108.801H674.407L647.445 54.8773Z" fill="black"/>
<path fill-rule="evenodd" clip-rule="evenodd" d="M809.221 0.953136C839.001 0.953136 863.147 25.0977 863.147 54.8773C863.147 84.657 839.001 108.802 809.221 108.802H768.777V162.726H741.814V0.953136H809.221ZM768.777 81.8392H809.221C824.091 81.8392 836.184 69.7467 836.184 54.8771C836.184 40.0076 824.091 27.9151 809.221 27.9151H768.777V81.8392Z" fill="black"/>
<path fill-rule="evenodd" clip-rule="evenodd" d="M94.7098 162.726H121.673L135.154 135.763H216.042L229.523 162.726H256.486L175.598 0.953136L94.7098 162.726ZM148.635 108.801L175.598 54.8773L202.561 108.801H148.635Z" fill="black"/>
<path d="M937.724 75.3391L976.322 0.783203L1005.77 57.6589C1002.74 59.4379 999.163 61.6349 996.515 63.7448C988.193 70.3757 978.397 80.0328 977.413 95.1772C976.414 110.56 983.669 118.975 990.333 126.627L990.343 126.638C997.114 134.413 1002.69 143.664 998.184 153.901C997.153 156.245 994.457 160.165 992.615 162.731H859.432L921.2 43.4204L937.724 75.3391Z" fill="black"/>
<path d="M1002.87 71.2979C1005.36 69.3161 1007.96 67.5619 1010.2 66.2149L1060.16 162.731H1017.85C1018.74 159.478 1019.27 155.878 1019.13 152.235C1018.66 139.376 1010.04 130.193 1003.43 123.157C1002.18 121.821 1000.99 120.563 999.954 119.371L999.408 118.744C992.702 111.044 988.005 105.214 988.656 95.1772C989.324 84.8945 995.758 76.9655 1002.87 71.2979Z" fill="black"/>
</svg>
